HIERARCHY
ROOT Hips
{
	OFFSET 0.000000 0.000000 0.000000
	CHANNELS 6 Xposition Yposition Zposition Xrotation Yrotation Zrotation
	JOINT LeftUpLeg_virtual
	{
		OFFSET 0.000000 0.000000 0.000000
		CHANNELS 3 Xrotation Yrotation Zrotation
		JOINT LeftUpLeg
		{
			OFFSET 10.205400 -3.823500 0.155100
			CHANNELS 3 Xrotation Yrotation Zrotation
			JOINT LeftLeg
			{
				OFFSET 0.708757 -12.982077 0.567790
				CHANNELS 3 Xrotation Yrotation Zrotation
				JOINT LeftFoot
				{
					OFFSET -0.708756 -10.717838 -2.184338
					CHANNELS 3 Xrotation Yrotation Zrotation
					JOINT LeftToeBase
					{
						OFFSET 0.108149 -7.191104 7.560241
						CHANNELS 3 Xrotation Yrotation Zrotation
						JOINT LeftToe_End
						{
							OFFSET 0.070230 0.081724 4.490308
							CHANNELS 3 Xrotation Yrotation Zrotation
							End Site
							{
								OFFSET 0 0 0
							}
						}
					}
				}
			}
		}
	}
	JOINT RightUpLeg_virtual
	{
		OFFSET 0.000000 0.000000 0.000000
		CHANNELS 3 Xrotation Yrotation Zrotation
		JOINT RightUpLeg
		{
			OFFSET -10.205400 -3.823500 0.005500
			CHANNELS 3 Xrotation Yrotation Zrotation
			JOINT RightLeg
			{
				OFFSET -0.708756 -12.982134 0.610632
				CHANNELS 3 Xrotation Yrotation Zrotation
				JOINT RightFoot
				{
					OFFSET 0.708754 -10.717769 -1.945823
					CHANNELS 3 Xrotation Yrotation Zrotation
					JOINT RightToeBase
					{
						OFFSET -0.108140 -7.191069 7.372968
						CHANNELS 3 Xrotation Yrotation Zrotation
						JOINT RightToe_End
						{
							OFFSET -0.070227 0.081735 4.479403
							CHANNELS 3 Xrotation Yrotation Zrotation
							End Site
							{
								OFFSET 0 0 0
							}
						}
					}
				}
			}
		}
	}
	JOINT Spine_virtual
	{
		OFFSET 0.000000 0.000000 0.000000
		CHANNELS 3 Xrotation Yrotation Zrotation
		JOINT Spine
		{
			OFFSET 0.000000 6.876099 0.125700
			CHANNELS 3 Xrotation Yrotation Zrotation
			JOINT Spine1
			{
				OFFSET 0.000000 5.730043 0.104720
				CHANNELS 3 Xrotation Yrotation Zrotation
				JOINT Spine1_split
				{
					OFFSET 0.000000 5.730043 0.104720
					CHANNELS 3 Xrotation Yrotation Zrotation
					JOINT Spine2
					{
						OFFSET 0.000000 5.730043 0.104720
						CHANNELS 3 Xrotation Yrotation Zrotation
						JOINT Neck_virtual
						{
							OFFSET 0.000000 0.000000 0.000000
							CHANNELS 3 Xrotation Yrotation Zrotation
							JOINT Neck
							{
								OFFSET 0.000000 10.314075 0.188496
								CHANNELS 3 Xrotation Yrotation Zrotation
								JOINT Head
								{
									OFFSET 0.000000 7.643700 -2.377400
									CHANNELS 3 Xrotation Yrotation Zrotation
									JOINT HeadTop_End
									{
										OFFSET 0.000000 43.788605 -13.619600
										CHANNELS 3 Xrotation Yrotation Zrotation
										End Site
										{
											OFFSET 0 0 0
										}
									}
								}
							}
						}
						JOINT LeftShoulder_virtual
						{
							OFFSET 0.000000 0.000000 0.000000
							CHANNELS 3 Xrotation Yrotation Zrotation
							JOINT LeftShoulder
							{
								OFFSET 2.196100 4.412489 0.087492
								CHANNELS 3 Xrotation Yrotation Zrotation
								JOINT LeftShoulder_split
								{
									OFFSET 2.196100 4.412489 0.087492
									CHANNELS 3 Xrotation Yrotation Zrotation
									JOINT LeftArm
									{
										OFFSET 8.771219 -2.981674 -0.026999
										CHANNELS 3 Xrotation Yrotation Zrotation
										JOINT LeftForeArm
										{
											OFFSET 8.512804 0.000000 -0.000000
											CHANNELS 3 Xrotation Yrotation Zrotation
											JOINT LeftHand
											{
												OFFSET 18.484802 0.000000 -0.000000
												CHANNELS 3 Xrotation Yrotation Zrotation
												End Site
												{
													OFFSET 0 0 0
												}
											}
										}
									}
								}
							}
						}
						JOINT RightShoulder_virtual
						{
							OFFSET 0.000000 0.000000 0.000000
							CHANNELS 3 Xrotation Yrotation Zrotation
							JOINT RightShoulder
							{
								OFFSET -2.196100 4.412496 0.070690
								CHANNELS 3 Xrotation Yrotation Zrotation
								JOINT RightShoulder_split
								{
									OFFSET -2.196100 4.412496 0.070690
									CHANNELS 3 Xrotation Yrotation Zrotation
									JOINT RightArm
									{
										OFFSET -8.771282 -2.981682 -0.094208
										CHANNELS 3 Xrotation Yrotation Zrotation
										JOINT RightForeArm
										{
											OFFSET -8.494598 0.000000 0.000000
											CHANNELS 3 Xrotation Yrotation Zrotation
											JOINT RightHand
											{
												OFFSET -18.483803 0.000000 0.000001
												CHANNELS 3 Xrotation Yrotation Zrotation
												End Site
												{
													OFFSET 0 0 0
												}
											}
										}
									}
								}
							}
						}
					}
				}
			}
		}
	}
}
MOTION
Frames: 4
Frame Time: 0.03333333
-0.112290 32.510448 -1.738651 0.000000 0.000000 0.000000 5.434428 2.760828 -1.754635 -42.547123 11.329472 -5.738806 109.490343 19.081776 5.620240 -21.598201 -0.519594 4.660952 -0.898553 -2.887864 -6.627473 0.000000 0.000000 0.000000 5.434428 2.760828 -1.754635 -16.583568 -5.381092 4.484956 44.896527 -0.484681 -1.622618 -25.692458 0.833198 -2.464736 -10.242420 12.978171 -1.678610 0.000000 0.000000 0.000000 5.434428 2.760828 -1.754635 4.962766 1.385390 0.117295 9.857122 2.800250 1.722123 0.000000 0.000000 0.000000 0.000000 0.000000 0.000000 9.857128 2.800251 1.722122 -7.496569 -3.144982 -0.434788 -14.101450 -7.360287 -5.253897 0.000000 0.000000 0.000000 9.857128 2.800251 1.722122 1.084072 -1.226533 -9.108562 0.000000 0.000000 0.000000 21.951209 16.129907 -69.744612 -174.798201 -76.010115 173.876508 0.000000 0.000000 0.000000 9.857128 2.800251 1.722122 0.776484 6.054085 9.529751 0.000000 0.000000 0.000000 5.506744 -10.523583 55.529288 -70.896414 86.710385 75.613555 0.000000 0.000000 0.000000 
0.708758 32.589993 7.382275 0.000000 0.000000 0.000000 0.108720 -1.458504 3.780628 -67.469626 3.025997 -2.562161 90.879656 15.078141 4.250339 11.369720 -0.870087 10.141728 -4.875845 -3.545070 -3.061921 0.000000 0.000000 0.000000 0.108720 -1.458504 3.780628 -0.333233 -4.062889 -3.906995 55.443839 1.761452 -4.407209 -16.489265 -0.550109 2.059400 -43.139471 9.846530 6.615799 0.000000 0.000000 0.000000 0.108720 -1.458504 3.780628 4.733764 1.473534 -0.370005 9.488548 3.163839 -0.986325 0.000000 0.000000 0.000000 0.000000 0.000000 0.000000 9.488545 3.163838 -0.986325 2.602475 -3.411512 -2.577497 -12.199131 -8.439067 -5.062701 0.000000 0.000000 0.000000 9.488545 3.163838 -0.986325 0.950476 -5.646697 -7.066036 0.000000 0.000000 0.000000 19.644690 26.553703 -68.303422 135.056664 -88.006591 123.490298 0.000000 0.000000 0.000000 9.488545 3.163838 -0.986325 0.215443 7.052331 4.417753 0.000000 0.000000 0.000000 -0.696323 -7.601971 49.506622 -136.724036 80.118488 141.096518 0.000000 0.000000 0.000000 
0.875074 31.096630 16.984735 0.000000 0.000000 0.000000 -6.512889 -7.598655 7.911318 -68.062739 -3.156577 -1.521215 71.850380 18.472083 4.962886 14.662085 -0.677149 8.768094 -4.770438 -8.955181 4.908038 0.000000 0.000000 0.000000 -6.512889 -7.598655 7.911318 5.469752 3.445063 -13.626492 63.358488 6.592057 -3.925113 29.795963 -0.467274 -1.820675 -69.454288 -3.541861 9.456551 0.000000 0.000000 0.000000 -6.512889 -7.598655 7.911318 5.221666 1.592497 -1.505930 10.507890 3.279738 -3.461315 0.000000 0.000000 0.000000 0.000000 0.000000 0.000000 10.507898 3.279739 -3.461315 11.415387 -3.410769 -4.364174 -10.844135 -7.168178 -5.071503 0.000000 0.000000 0.000000 10.507898 3.279739 -3.461315 0.774284 -9.387648 -6.438874 0.000000 0.000000 0.000000 20.205197 35.514600 -63.760116 44.363510 -72.657408 27.758577 0.000000 0.000000 0.000000 10.507898 3.279739 -3.461315 -0.199666 7.579320 -1.593893 0.000000 0.000000 0.000000 -6.612558 -8.410403 44.562012 -147.787781 71.668403 149.583424 0.000000 0.000000 0.000000 
1.643792 28.782036 26.335026 0.000000 0.000000 0.000000 -10.654492 -16.404882 10.697089 -60.773206 -5.031435 -0.570072 51.143746 24.785092 6.586847 11.456469 -0.697633 12.081428 -5.391942 -11.789737 10.073093 0.000000 0.000000 0.000000 -10.654492 -16.404882 10.697089 17.511519 5.226454 -14.223576 63.668032 12.680989 2.202012 43.687031 1.374221 2.030120 -10.031010 -5.809926 21.219374 0.000000 0.000000 0.000000 -10.654492 -16.404882 10.697089 5.753727 1.919738 -2.919021 11.598091 3.450195 -5.915490 0.000000 0.000000 0.000000 0.000000 0.000000 0.000000 11.598091 3.450192 -5.915491 16.890341 -2.645590 -6.011884 -10.493315 -3.242920 -5.853355 0.000000 0.000000 0.000000 11.598091 3.450192 -5.915491 0.522784 -10.917885 -5.526674 0.000000 0.000000 0.000000 24.556543 41.465590 -61.039311 37.414431 -54.868638 14.591038 0.000000 0.000000 0.000000 11.598091 3.450192 -5.915491 -0.402389 7.421420 -7.423880 0.000000 0.000000 0.000000 -7.388202 -13.516217 42.105391 -151.539017 58.470961 151.678448 0.000000 0.000000 0.000000 
